<svg width="160" height="160" viewBox="0 0 160 160" xmlns="http://www.w3.org/2000/svg" role="img" aria-label="MechaBot logo">
  <defs>
    <linearGradient id="gradA" x1="0%" y1="0%" x2="100%" y2="100%">
      <stop offset="0%" stop-color="#2563EB" />
      <stop offset="100%" stop-color="#5B8DEF" />
    </linearGradient>
    <linearGradient id="gradB" x1="0%" y1="0%" x2="100%" y2="100%">
      <stop offset="0%" stop-color="#F97316" />
      <stop offset="100%" stop-color="#FB923C" />
    </linearGradient>
  </defs>
  <rect x="8" y="8" width="144" height="144" rx="32" fill="#0F172A" />
  <rect x="20" y="20" width="120" height="120" rx="28" fill="url(#gradA)" opacity="0.95" />
  <g transform="translate(40 38)">
    <rect x="0" y="0" width="80" height="50" rx="16" fill="#fff" opacity="0.16" />
    <rect x="12" y="10" width="56" height="30" rx="12" fill="#fff" />
    <circle cx="28" cy="25" r="6" fill="#2563EB" />
    <circle cx="52" cy="25" r="6" fill="#F97316" />
    <path d="M26 42h28" stroke="#0F172A" stroke-width="6" stroke-linecap="round" />
    <path d="M16 0v10" stroke="#fff" stroke-width="6" stroke-linecap="round" />
    <path d="M64 0v10" stroke="#fff" stroke-width="6" stroke-linecap="round" />
  </g>
  <g transform="translate(44 82)">
    <rect x="0" y="0" width="12" height="20" rx="6" fill="#fff" opacity="0.8" />
    <rect x="28" y="0" width="12" height="20" rx="6" fill="#fff" opacity="0.8" />
    <rect x="56" y="0" width="12" height="20" rx="6" fill="#fff" opacity="0.8" />
  </g>
  <path d="M46 100c0-8 8-12 14-12h28c6 0 14 4 14 12" fill="none" stroke="url(#gradB)" stroke-width="8" stroke-linecap="round" />
</svg>
